<svg xmlns="http://www.w3.org/2000/svg" viewBox="-147.6 -1936 2756 2756" width="2756" height="2756" role="img" aria-label="mandari.">
  <path fill="#111827" d="M128.0 0V-1118H406.0L421.0 -840H399.0Q425.0 -943 475.5 -1008.0Q526.0 -1073 594.0 -1104.0Q662.0 -1135 737.0 -1135Q858.0 -1135 932.0 -1058.5Q1006.0 -982 1041.0 -822H1006.0Q1031.0 -929 1087.5 -998.5Q1144.0 -1068 1221.5 -1101.5Q1299.0 -1135 1384.0 -1135Q1487.0 -1135 1567.5 -1090.0Q1648.0 -1045 1694.5 -960.5Q1741.0 -876 1741.0 -754V0H1441.0V-697Q1441.0 -792 1389.5 -838.0Q1338.0 -884 1263.0 -884Q1207.0 -884 1165.5 -859.5Q1124.0 -835 1101.5 -791.0Q1079.0 -747 1079.0 -688V0H789.0V-705Q789.0 -787 740.5 -835.5Q692.0 -884 615.0 -884Q562.0 -884 519.5 -860.0Q477.0 -836 452.5 -789.5Q428.0 -743 428.0 -676V0Z"/>
  <path fill="#4F46E5" d="M2159.8 19Q2086.8 19 2036.8000000000002 -30.5Q1986.8 -80 1986.8 -153Q1986.8 -226 2036.8000000000002 -275.0Q2086.8 -324 2159.8 -324Q2232.8 -324 2282.8 -275.0Q2332.8 -226 2332.8 -153Q2332.8 -80 2282.8 -30.5Q2232.8 19 2159.8 19Z"/>
</svg>