<svg xmlns="http://www.w3.org/2000/svg" viewBox="-365.8 -2065.8 9218.3 2581.7" width="9218.3" height="2581.7" role="img" aria-label="mandari.">
  <path fill="#111827" d="M128.0 0V-1118H406.0L421.0 -840H399.0Q425.0 -943 475.5 -1008.0Q526.0 -1073 594.0 -1104.0Q662.0 -1135 737.0 -1135Q858.0 -1135 932.0 -1058.5Q1006.0 -982 1041.0 -822H1006.0Q1031.0 -929 1087.5 -998.5Q1144.0 -1068 1221.5 -1101.5Q1299.0 -1135 1384.0 -1135Q1487.0 -1135 1567.5 -1090.0Q1648.0 -1045 1694.5 -960.5Q1741.0 -876 1741.0 -754V0H1441.0V-697Q1441.0 -792 1389.5 -838.0Q1338.0 -884 1263.0 -884Q1207.0 -884 1165.5 -859.5Q1124.0 -835 1101.5 -791.0Q1079.0 -747 1079.0 -688V0H789.0V-705Q789.0 -787 740.5 -835.5Q692.0 -884 615.0 -884Q562.0 -884 519.5 -860.0Q477.0 -836 452.5 -789.5Q428.0 -743 428.0 -676V0Z M2257.8 22Q2151.8 22 2067.3 -15.5Q1982.8 -53 1934.3 -127.5Q1885.8 -202 1885.8 -313Q1885.8 -406 1920.3 -469.0Q1954.8 -532 2014.3000000000002 -570.0Q2073.8 -608 2149.3 -628.0Q2224.8 -648 2307.8 -656Q2404.8 -666 2464.3 -674.5Q2523.8 -683 2551.3 -701.5Q2578.8 -720 2578.8 -756V-761Q2578.8 -809 2558.8 -842.0Q2538.8 -875 2499.8 -892.5Q2460.8 -910 2403.8 -910Q2345.8 -910 2302.8 -892.5Q2259.8 -875 2232.8 -846.0Q2205.8 -817 2192.8 -781L1917.8 -827Q1946.8 -924 2013.8000000000002 -992.0Q2080.8 -1060 2180.3 -1096.0Q2279.8 -1132 2403.8 -1132Q2494.8 -1132 2579.8 -1110.5Q2664.8 -1089 2732.3 -1044.0Q2799.8 -999 2839.3 -927.0Q2878.8 -855 2878.8 -753V0H2594.8V-155H2584.8Q2557.8 -103 2512.8 -63.5Q2467.8 -24 2404.3 -1.0Q2340.8 22 2257.8 22ZM2342.8 -189Q2413.8 -189 2467.3 -217.0Q2520.8 -245 2550.8 -293.0Q2580.8 -341 2580.8 -400V-521Q2567.8 -511 2540.8 -503.0Q2513.8 -495 2480.8 -489.0Q2447.8 -483 2415.8 -478.0Q2383.8 -473 2358.8 -470Q2303.8 -462 2261.8 -444.0Q2219.8 -426 2196.8 -396.5Q2173.8 -367 2173.8 -321Q2173.8 -278 2195.8 -248.5Q2217.8 -219 2255.3 -204.0Q2292.8 -189 2342.8 -189Z M3383.6 -647V0H3083.6V-1118H3366.6L3371.6 -839H3353.6Q3397.6 -979 3487.1 -1055.5Q3576.6 -1132 3718.6 -1132Q3834.6 -1132 3920.6 -1081.5Q4006.6 -1031 4054.6000000000004 -936.5Q4102.6 -842 4102.6 -711V0H3802.6V-659Q3802.6 -763 3749.1 -822.0Q3695.6 -881 3600.6 -881Q3537.6 -881 3488.1 -853.5Q3438.6 -826 3411.1 -774.0Q3383.6 -722 3383.6 -647Z M4716.4 19Q4587.4 19 4483.9 -47.5Q4380.4 -114 4320.4 -242.5Q4260.4 -371 4260.4 -557Q4260.4 -748 4322.4 -876.0Q4384.4 -1004 4487.4 -1068.0Q4590.4 -1132 4714.4 -1132Q4809.4 -1132 4872.4 -1100.0Q4935.4 -1068 4974.4 -1021.0Q5013.4 -974 5032.4 -930H5042.4V-1490H5342.4V0H5047.4V-179H5032.4Q5012.4 -134 4972.9 -88.5Q4933.4 -43 4870.4 -12.0Q4807.4 19 4716.4 19ZM4808.4 -222Q4884.4 -222 4938.4 -264.0Q4992.4 -306 5020.4 -381.5Q5048.4 -457 5048.4 -558Q5048.4 -660 5020.9 -734.5Q4993.4 -809 4939.4 -850.5Q4885.4 -892 4808.4 -892Q4729.4 -892 4675.9 -849.0Q4622.4 -806 4595.4 -731.0Q4568.4 -656 4568.4 -558Q4568.4 -460 4595.9 -384.0Q4623.4 -308 4676.9 -265.0Q4730.4 -222 4808.4 -222Z M5859.2 22Q5753.2 22 5668.7 -15.5Q5584.2 -53 5535.7 -127.5Q5487.2 -202 5487.2 -313Q5487.2 -406 5521.7 -469.0Q5556.2 -532 5615.7 -570.0Q5675.2 -608 5750.7 -628.0Q5826.2 -648 5909.2 -656Q6006.2 -666 6065.7 -674.5Q6125.2 -683 6152.7 -701.5Q6180.2 -720 6180.2 -756V-761Q6180.2 -809 6160.2 -842.0Q6140.2 -875 6101.2 -892.5Q6062.2 -910 6005.2 -910Q5947.2 -910 5904.2 -892.5Q5861.2 -875 5834.2 -846.0Q5807.2 -817 5794.2 -781L5519.2 -827Q5548.2 -924 5615.2 -992.0Q5682.2 -1060 5781.7 -1096.0Q5881.2 -1132 6005.2 -1132Q6096.2 -1132 6181.2 -1110.5Q6266.2 -1089 6333.7 -1044.0Q6401.2 -999 6440.7 -927.0Q6480.2 -855 6480.2 -753V0H6196.2V-155H6186.2Q6159.2 -103 6114.2 -63.5Q6069.2 -24 6005.7 -1.0Q5942.2 22 5859.2 22ZM5944.2 -189Q6015.2 -189 6068.7 -217.0Q6122.2 -245 6152.2 -293.0Q6182.2 -341 6182.2 -400V-521Q6169.2 -511 6142.2 -503.0Q6115.2 -495 6082.2 -489.0Q6049.2 -483 6017.2 -478.0Q5985.2 -473 5960.2 -470Q5905.2 -462 5863.2 -444.0Q5821.2 -426 5798.2 -396.5Q5775.2 -367 5775.2 -321Q5775.2 -278 5797.2 -248.5Q5819.2 -219 5856.7 -204.0Q5894.2 -189 5944.2 -189Z M6685.0 0V-1118H6975.0V-923H6987.0Q7018.0 -1027 7090.5 -1080.0Q7163.0 -1133 7257.0 -1133Q7280.0 -1133 7306.5 -1130.5Q7333.0 -1128 7354.0 -1123V-855Q7334.0 -862 7296.0 -866.0Q7258.0 -870 7224.0 -870Q7156.0 -870 7101.0 -840.5Q7046.0 -811 7015.5 -758.5Q6985.0 -706 6985.0 -636V0Z M7467.8 0V-1118H7767.8V0ZM7617.8 -1264Q7549.8 -1264 7501.8 -1309.0Q7453.8 -1354 7453.8 -1418Q7453.8 -1482 7501.8 -1527.0Q7549.8 -1572 7617.8 -1572Q7685.8 -1572 7734.3 -1527.5Q7782.8 -1483 7782.8 -1418Q7782.8 -1354 7734.3 -1309.0Q7685.8 -1264 7617.8 -1264Z"/>
  <path fill="#4F46E5" d="M8185.6 19Q8112.6 19 8062.6 -30.5Q8012.6 -80 8012.6 -153Q8012.6 -226 8062.6 -275.0Q8112.6 -324 8185.6 -324Q8258.6 -324 8308.6 -275.0Q8358.6 -226 8358.6 -153Q8358.6 -80 8308.6 -30.5Q8258.6 19 8185.6 19Z"/>
</svg>